<svg width="906" height="741" viewBox="0 0 906 741" fill="none" xmlns="http://www.w3.org/2000/svg">
<path d="M591.178 179.354C546.974 226.035 460.39 345.931 467.678 452.069" stroke="url(#paint0_linear_2_2)"/>
<path d="M528.922 196.06C484.718 242.741 451.279 355.267 458.568 461.405" stroke="url(#paint1_linear_2_2)"/>
<path d="M476.789 194.586C457.555 259.448 441.865 427.991 441.865 481.06" stroke="url(#paint2_linear_2_2)"/>
<path d="M307.23 188.69C351.434 235.371 433.463 377.871 426.174 484.009" stroke="url(#paint3_linear_2_2)"/>
<path d="M369.486 188.69C413.69 235.371 442.573 387.207 435.285 493.345" stroke="url(#paint4_linear_2_2)"/>
<path d="M419.088 191.638C438.578 262.723 440.346 441.081 440.346 499.241" stroke="url(#paint5_linear_2_2)"/>
<path d="M457.555 741C609.064 741 731.886 668.401 731.886 578.845C731.886 489.289 609.064 416.69 457.555 416.69C306.047 416.69 183.225 489.289 183.225 578.845C183.225 668.401 306.047 741 457.555 741Z" fill="url(#paint6_radial_2_2)"/>
<path d="M445.408 617.172C495.724 617.172 536.514 577.573 536.514 528.724C536.514 479.876 495.724 440.276 445.408 440.276C395.091 440.276 354.302 479.876 354.302 528.724C354.302 577.573 395.091 617.172 445.408 617.172Z" fill="url(#paint7_linear_2_2)"/>
<g filter="url(#filter0_d_2_2)">
<path fill-rule="evenodd" clip-rule="evenodd" d="M484.389 489.307C484.389 491.517 482.544 493.308 480.266 493.308H411.431C409.155 493.308 407.309 491.517 407.309 489.307C407.309 487.095 409.155 485.304 411.431 485.304H480.266C482.544 485.304 484.389 487.095 484.389 489.307Z" fill="white"/>
<path fill-rule="evenodd" clip-rule="evenodd" d="M484.389 569.75C484.389 571.961 482.544 573.752 480.266 573.752H411.431C409.155 573.752 407.309 571.961 407.309 569.75C407.309 567.539 409.155 565.748 411.431 565.748H480.266C482.544 565.748 484.389 567.539 484.389 569.75Z" fill="white"/>
<path d="M454.52 489.307L422.724 528.592L454.52 570.686" stroke="white" stroke-width="8"/>
</g>
<path d="M445.914 449.612C569.014 449.612 680.44 464.403 761.075 488.305C801.396 500.258 833.989 514.479 856.49 530.249C879.003 546.027 891.322 563.286 891.322 581.302C891.322 599.318 879.003 616.577 856.49 632.354C833.989 648.124 801.396 662.346 761.075 674.298C680.44 698.201 569.014 712.991 445.914 712.991C322.814 712.991 211.388 698.201 130.753 674.298C90.4323 662.346 57.8397 648.124 35.3383 632.354C12.8251 616.577 0.506165 599.318 0.506165 581.302C0.506165 563.286 12.8251 546.027 35.3383 530.249C57.8397 514.479 90.4323 500.258 130.753 488.305C211.388 464.403 322.814 449.612 445.914 449.612Z" stroke="url(#paint8_linear_2_2)"/>
<path d="M450.469 449.612C557.21 449.612 653.825 464.403 723.736 488.299C758.693 500.249 786.949 514.466 806.452 530.229C825.959 545.994 836.658 563.255 836.658 581.302C836.658 599.348 825.959 616.609 806.452 632.375C786.949 648.137 758.693 662.355 723.736 674.304C653.825 698.201 557.21 712.991 450.469 712.991C343.728 712.991 247.113 698.201 177.202 674.304C142.245 662.355 113.99 648.137 94.4861 632.375C74.9788 616.609 64.2805 599.348 64.2805 581.302C64.2805 563.255 74.9788 545.994 94.4861 530.229C113.99 514.466 142.245 500.249 177.202 488.299C247.113 464.403 343.728 449.612 450.469 449.612Z" stroke="url(#paint9_linear_2_2)"/>
<path d="M461.098 449.612C558.191 449.612 646.069 464.401 709.655 488.293C741.45 500.241 767.146 514.455 784.883 530.214C802.622 545.972 812.363 563.237 812.363 581.302C812.363 599.367 802.622 616.632 784.883 632.389C767.146 648.148 741.45 662.363 709.655 674.31C646.069 698.203 558.191 712.991 461.098 712.991C364.005 712.991 276.128 698.203 212.542 674.31C180.746 662.363 155.051 648.148 137.313 632.389C119.575 616.632 109.834 599.367 109.834 581.302C109.834 563.237 119.575 545.972 137.313 530.214C155.051 514.455 180.746 500.241 212.542 488.293C276.128 464.401 364.005 449.612 461.098 449.612Z" stroke="url(#paint10_linear_2_2)"/>
<path d="M450.469 378.853C535.78 378.853 604.844 439.181 604.844 513.491C604.844 587.802 535.78 648.129 450.469 648.129C365.158 648.129 296.095 587.802 296.095 513.491C296.095 439.181 365.158 378.853 450.469 378.853Z" stroke="url(#paint11_linear_2_2)"/>
<path d="M449.963 468.284C491.125 468.284 528.366 477.29 555.298 491.825C582.246 506.37 598.77 526.385 598.77 548.379C598.77 570.373 582.246 590.388 555.298 604.933C528.366 619.468 491.125 628.474 449.963 628.474C408.801 628.474 371.56 619.468 344.628 604.933C317.68 590.388 301.156 570.373 301.156 548.379C301.156 526.385 317.68 506.37 344.628 491.825C371.56 477.29 408.801 468.284 449.963 468.284Z" stroke="url(#paint12_linear_2_2)"/>
<path d="M863.578 536.34C863.578 534.813 861.89 533.368 859.303 532.471C859.9 529.487 859.635 527.11 858.466 526.35C858.182 526.17 857.862 526.08 857.537 526.087V527.134C857.728 527.134 857.881 527.177 858.01 527.257C858.573 527.623 858.818 529.016 858.628 530.81C858.582 531.251 858.507 531.716 858.416 532.189C857.55 531.953 856.67 531.782 855.783 531.678C855.256 530.853 854.679 530.069 854.059 529.331C855.411 527.908 856.679 527.13 857.543 527.13V526.083C856.402 526.083 854.909 527.003 853.399 528.598C851.891 527.014 850.398 526.102 849.258 526.102V527.148C850.117 527.148 851.389 527.923 852.741 529.335C852.16 530.026 851.58 530.81 851.029 531.678C850.14 531.781 849.259 531.954 848.392 532.194C848.3 531.745 848.228 531.291 848.176 530.833C847.981 529.04 848.221 527.646 848.781 527.276C848.905 527.191 849.067 527.153 849.258 527.153V526.107C848.91 526.107 848.594 526.192 848.322 526.369C847.156 527.13 846.895 529.5 847.496 532.476C844.917 533.379 843.238 534.818 843.238 536.34C843.238 537.865 844.925 539.31 847.513 540.206C846.916 543.192 847.181 545.568 848.35 546.327C848.619 546.506 848.935 546.591 849.282 546.591C850.423 546.591 851.915 545.671 853.425 544.075C854.934 545.661 856.426 546.571 857.567 546.571C857.894 546.579 858.217 546.489 858.503 546.309C859.668 545.549 859.93 543.179 859.328 540.202C861.9 539.306 863.578 537.86 863.578 536.34ZM858.179 533.208C858.018 533.835 857.832 534.455 857.621 535.062C857.273 534.299 856.893 533.556 856.48 532.837C857.069 532.936 857.636 533.058 858.179 533.208ZM856.281 538.208C855.971 538.821 855.638 539.42 855.282 540C854.038 540.125 852.787 540.126 851.543 540.005C850.829 538.851 850.205 537.63 849.677 536.353C850.205 535.075 850.825 533.848 851.535 532.689C852.779 532.564 854.029 532.562 855.273 532.683C855.617 533.241 855.954 533.837 856.277 534.467C856.592 535.082 856.879 535.705 857.14 536.335C856.876 536.971 856.589 537.597 856.281 538.208ZM857.621 537.597C857.844 538.225 858.036 538.855 858.193 539.466C857.65 539.616 857.077 539.743 856.485 539.84C856.896 539.115 857.274 538.366 857.621 537.597ZM853.417 542.606C853.031 542.155 852.645 541.653 852.264 541.103C852.637 541.123 853.018 541.136 853.403 541.136C853.794 541.136 854.179 541.128 854.556 541.103C854.184 541.653 853.798 542.155 853.417 542.606ZM850.331 539.84C849.76 539.747 849.193 539.623 848.631 539.47C848.785 538.864 848.976 538.24 849.191 537.616C849.361 537.991 849.541 538.367 849.735 538.742C849.93 539.118 850.129 539.484 850.331 539.84ZM853.395 530.073C853.781 530.524 854.167 531.026 854.548 531.575C854.175 531.556 853.794 531.542 853.408 531.542C853.018 531.542 852.633 531.552 852.255 531.575C852.628 531.026 853.014 530.524 853.395 530.073ZM850.327 532.838C849.916 533.562 849.537 534.309 849.191 535.077C848.974 534.464 848.783 533.841 848.619 533.208C849.162 533.062 849.735 532.936 850.327 532.838ZM846.575 538.714C845.108 538.006 844.158 537.076 844.158 536.34C844.158 535.603 845.108 534.668 846.575 533.964C846.932 533.79 847.322 533.635 847.723 533.491C847.96 534.409 848.271 535.368 848.656 536.348C848.292 537.272 847.986 538.223 847.737 539.192C847.343 539.055 846.955 538.895 846.575 538.714ZM848.806 545.421C848.243 545.057 847.998 543.661 848.188 541.869C848.234 541.427 848.309 540.962 848.4 540.488C849.213 540.714 850.099 540.888 851.033 541.001C851.561 541.825 852.137 542.61 852.758 543.348C851.405 544.77 850.137 545.549 849.274 545.549C849.111 545.551 848.95 545.507 848.806 545.422V545.421ZM858.641 541.845C858.835 543.639 858.594 545.032 858.035 545.403C857.911 545.487 857.749 545.524 857.558 545.524C856.699 545.524 855.427 544.75 854.075 543.337C854.693 542.602 855.265 541.819 855.787 540.996C856.676 540.893 857.557 540.72 858.424 540.48C858.521 540.954 858.593 541.409 858.641 541.845ZM860.236 538.714C859.88 538.888 859.49 539.043 859.088 539.188C858.834 538.213 858.524 537.257 858.156 536.33C858.537 535.354 858.843 534.401 859.075 533.486C859.47 533.624 859.859 533.783 860.24 533.964C861.708 534.673 862.658 535.603 862.658 536.34C862.654 537.076 861.704 538.01 860.236 538.714Z" fill="url(#paint13_linear_2_2)"/>
<path d="M853.403 538.484C853.906 538.484 854.388 538.258 854.744 537.856C855.099 537.453 855.298 536.908 855.298 536.339C855.298 535.77 855.099 535.224 854.744 534.821C854.388 534.419 853.906 534.193 853.403 534.193C852.901 534.193 852.419 534.419 852.064 534.821C851.709 535.224 851.508 535.77 851.508 536.339C851.508 536.908 851.709 537.453 852.064 537.856C852.419 538.258 852.901 538.484 853.403 538.484Z" fill="url(#paint14_linear_2_2)"/>
<path d="M792.226 496.284H781.886C781.108 496.284 780.476 497 780.476 497.881V509.587C780.476 510.468 781.108 511.184 781.886 511.184H792.226C793.004 511.184 793.636 510.468 793.636 509.587V497.881C793.636 497 793.004 496.284 792.226 496.284ZM787.638 507.904C787.638 509.354 786.886 510.016 785.789 510.016C784.799 510.016 784.227 509.438 783.933 508.736L784.941 508.047C785.135 508.436 785.311 508.765 785.737 508.765C786.143 508.765 786.401 508.586 786.401 507.885V503.125H787.638V507.904ZM790.563 510.016C789.415 510.016 788.671 509.397 788.31 508.586L789.317 507.928C789.583 508.416 789.929 508.779 790.537 508.779C791.048 508.779 791.377 508.49 791.377 508.087C791.377 507.609 791.042 507.439 790.475 507.157L790.167 507.006C789.274 506.578 788.684 506.035 788.684 504.894C788.684 503.844 789.391 503.046 790.493 503.046C791.28 503.046 791.844 503.355 792.249 504.166L791.286 504.865C791.075 504.435 790.845 504.266 790.49 504.266C790.128 504.266 789.899 504.526 789.899 504.865C789.899 505.283 790.128 505.453 790.66 505.716L790.968 505.866C792.02 506.374 792.61 506.897 792.61 508.068C792.61 509.325 791.736 510.016 790.563 510.016Z" fill="url(#paint15_linear_2_2)"/>
<path d="M897.898 599.432C897.655 599.432 897.409 599.354 897.195 599.208L894.958 597.63C894.625 597.405 894.788 597.328 894.896 597.284C895.343 597.099 895.433 597.06 895.907 596.736C895.959 596.702 896.024 596.714 896.074 596.753L897.793 597.967C897.854 598.011 897.941 598.011 898 597.967L904.695 593.361C904.757 593.318 904.796 593.231 904.796 593.145V583.933C904.796 583.842 904.757 583.76 904.691 583.712L898 579.111C897.938 579.068 897.854 579.068 897.793 579.111L891.105 583.716C891.039 583.76 891 583.846 891 583.937V593.145C891 593.231 891.039 593.318 891.105 593.357L892.939 594.618C893.936 595.211 894.545 594.515 894.545 593.81V584.72C894.545 584.59 894.632 584.49 894.74 584.49H895.589C895.694 584.49 895.785 584.59 895.785 584.72V593.815C895.785 595.396 895.059 596.304 893.802 596.304C893.414 596.304 893.109 596.304 892.261 595.802L890.507 594.596C890.072 594.299 889.803 593.741 889.803 593.141V583.933C889.803 583.337 890.072 582.775 890.507 582.477L897.195 577.871C897.619 577.585 898.181 577.585 898.601 577.871L905.296 582.481C905.732 582.779 906 583.337 906 583.937V593.145C906 593.741 905.732 594.299 905.296 594.601L898.601 599.208C898.388 599.354 898.145 599.432 897.898 599.432ZM903.303 590.354C903.303 588.63 902.324 588.172 900.268 587.848C898.188 587.52 897.978 587.351 897.978 586.772C897.978 586.292 898.156 585.652 899.696 585.652C901.07 585.652 901.577 586.007 901.788 587.113C901.806 587.217 901.886 587.295 901.976 587.295H902.847C902.9 587.295 902.951 587.269 902.987 587.221C903.024 587.174 903.042 587.109 903.038 587.044C902.904 585.138 901.843 584.253 899.696 584.253C897.785 584.253 896.647 585.212 896.647 586.824C896.647 588.569 897.782 589.053 899.612 589.269C901.806 589.524 901.976 589.909 901.976 590.423C901.976 591.313 901.375 591.693 899.965 591.693C898.191 591.693 897.803 591.162 897.673 590.112C897.659 589.999 897.579 589.918 897.482 589.918H896.615C896.506 589.918 896.423 590.021 896.423 590.147C896.423 591.49 897.035 593.093 899.968 593.093C902.084 593.089 903.303 592.09 903.303 590.354Z" fill="url(#paint16_linear_2_2)"/>
<path fill-rule="evenodd" clip-rule="evenodd" d="M778.487 663.612C776.784 663.612 775.415 665.229 775.415 667.211C775.415 668.415 775.922 669.486 776.7 670.139C776.298 670.479 775.973 670.921 775.75 671.429C775.527 671.939 775.412 672.499 775.415 673.067C775.415 674.272 775.922 675.341 776.7 675.994C776.298 676.335 775.973 676.777 775.75 677.286C775.527 677.794 775.412 678.355 775.415 678.922C775.415 680.904 776.784 682.522 778.487 682.522C780.189 682.522 781.56 680.904 781.56 678.922V675.879C782.098 676.388 782.776 676.666 783.477 676.667C785.18 676.666 786.55 675.048 786.55 673.067C786.553 672.499 786.437 671.939 786.215 671.429C785.991 670.921 785.666 670.479 785.264 670.139C785.666 669.798 785.991 669.356 786.215 668.848C786.437 668.339 786.553 667.779 786.55 667.211C786.55 665.229 785.18 663.612 783.477 663.612H778.487ZM776.57 667.211C776.57 665.958 777.433 664.953 778.487 664.953H780.404V669.468H778.487C777.433 669.468 776.57 668.464 776.57 667.211ZM783.477 669.467H781.56V664.952H783.477C784.531 664.952 785.395 665.958 785.395 667.211C785.395 668.464 784.531 669.467 783.477 669.467ZM776.57 673.067C776.57 671.814 777.434 670.809 778.488 670.809H780.405V675.324H778.487C777.433 675.324 776.57 674.32 776.57 673.067ZM781.56 673.067C781.56 671.814 782.424 670.809 783.477 670.809C784.532 670.809 785.396 671.813 785.396 673.067C785.396 674.32 784.532 675.324 783.477 675.324C782.424 675.324 781.56 674.32 781.56 673.067ZM776.57 678.922C776.57 677.67 777.434 676.666 778.488 676.666H780.405V678.922C780.405 680.176 779.543 681.179 778.488 681.179C777.434 681.179 776.57 680.176 776.57 678.922Z" fill="url(#paint17_linear_2_2)"/>
<path d="M847.625 597.139H838.436C837.174 597.139 836.152 598.297 836.152 599.725V609.74C836.152 611.168 837.174 612.325 838.436 612.325H847.625C848.887 612.325 849.91 611.168 849.91 609.74V599.725C849.91 598.297 848.887 597.139 847.625 597.139Z" fill="url(#paint18_linear_2_2)"/>
<path d="M843.384 601.134L841.668 604.341L843.504 607.748C843.516 607.771 843.519 607.8 843.513 607.826C843.51 607.837 843.504 607.84 843.495 607.841L843.485 607.84H843.472C843.465 607.84 843.458 607.84 843.449 607.842H842.125H842.099C842.027 607.839 841.976 607.828 841.944 607.768C841.822 607.498 841.699 607.229 841.576 606.959C841.464 606.719 841.351 606.48 841.235 606.243L841.183 606.139C841.043 605.858 840.907 605.576 840.772 605.293H840.763C840.639 605.573 840.512 605.852 840.38 606.128C840.248 606.407 840.117 606.684 839.988 606.959C839.859 607.235 839.726 607.508 839.591 607.779C839.569 607.834 839.533 607.846 839.482 607.848H839.462H838.198L838.192 607.849L838.174 607.85C838.164 607.851 838.158 607.849 838.156 607.831C838.152 607.806 838.157 607.78 838.169 607.759L839.951 604.446L838.216 601.123C838.198 601.095 838.195 601.073 838.207 601.055C838.214 601.046 838.222 601.039 838.231 601.036C838.241 601.031 838.251 601.029 838.263 601.03H839.563C839.592 601.028 839.62 601.033 839.646 601.045C839.669 601.059 839.688 601.079 839.702 601.102C839.812 601.381 839.936 601.66 840.072 601.939C840.205 602.215 840.342 602.49 840.482 602.764C840.619 603.033 840.747 603.309 840.865 603.59H840.874C840.995 603.309 841.119 603.03 841.248 602.753C841.373 602.482 841.503 602.208 841.636 601.933C841.766 601.661 841.894 601.388 842.018 601.113C842.025 601.088 842.038 601.064 842.056 601.045C842.078 601.032 842.103 601.027 842.13 601.03H843.338C843.349 601.027 843.361 601.028 843.372 601.033C843.382 601.037 843.391 601.046 843.397 601.057C843.402 601.069 843.405 601.082 843.403 601.094C843.402 601.107 843.397 601.119 843.389 601.129L843.385 601.134H843.384ZM846.097 607.977L846.033 607.978C845.608 607.985 845.188 607.885 844.801 607.685C844.441 607.496 844.14 607.189 843.937 606.802C843.734 606.419 843.63 605.941 843.625 605.37L843.624 605.324C843.621 604.845 843.729 604.372 843.937 603.955C844.147 603.543 844.452 603.202 844.82 602.972L844.852 602.952C845.251 602.701 845.734 602.575 846.3 602.575L846.325 602.576L846.354 602.577L846.385 602.578L846.421 602.581L846.479 602.585L846.547 602.592L846.596 602.597V600.538C846.596 600.489 846.614 600.465 846.651 600.465H847.815C847.822 600.464 847.83 600.465 847.837 600.467C847.844 600.47 847.85 600.474 847.856 600.481C847.861 600.487 847.865 600.494 847.867 600.503C847.87 600.511 847.87 600.52 847.869 600.527V606.703C847.869 606.806 847.873 606.918 847.88 607.038L847.898 607.309L847.907 607.466C847.908 607.487 847.903 607.509 847.893 607.528C847.883 607.546 847.868 607.561 847.851 607.57C847.551 607.712 847.239 607.817 846.919 607.883C846.647 607.94 846.372 607.972 846.097 607.977ZM846.596 606.682V603.829C846.546 603.815 846.496 603.804 846.444 603.798C846.381 603.791 846.317 603.787 846.255 603.788C846.031 603.785 845.809 603.842 845.609 603.955C845.412 604.065 845.246 604.23 845.124 604.436C845.002 604.637 844.939 604.901 844.935 605.226V605.261C844.931 605.488 844.963 605.715 845.032 605.93C845.087 606.103 845.175 606.259 845.29 606.39C845.399 606.509 845.532 606.599 845.678 606.651C845.831 606.707 845.991 606.736 846.152 606.735C846.239 606.735 846.319 606.731 846.393 606.724C846.452 606.719 846.51 606.708 846.567 606.691L846.596 606.682Z" fill="black"/>
<path d="M732.518 509.506C733.6 508.803 734.679 508.093 735.764 507.397C736.795 506.736 738.006 507.345 738.24 508.632C738.375 509.376 738.082 510.18 737.489 510.571C735.543 511.854 733.596 513.133 731.638 514.392C731.032 514.781 730.408 514.709 729.855 514.231C729.295 513.747 729.117 513.079 729.249 512.3C729.4 511.709 729.743 511.313 730.212 511.016C730.987 510.526 731.749 510.01 732.518 509.506Z" fill="url(#paint19_linear_2_2)"/>
<path d="M733.312 508.995C732.233 508.286 731.151 507.583 730.076 506.867C729.055 506.186 728.915 504.694 729.782 503.821C730.284 503.317 731.045 503.203 731.641 503.588C733.596 504.854 735.547 506.125 737.489 507.415C738.09 507.814 738.347 508.463 738.258 509.242C738.168 510.034 737.745 510.542 737.084 510.802C736.556 510.951 736.081 510.812 735.62 510.501C734.858 509.985 734.082 509.495 733.312 508.995Z" fill="url(#paint20_linear_2_2)"/>
<path d="M723.477 508.493C722.785 508.939 722.092 509.383 721.4 509.831C720.996 510.091 720.595 510.361 720.188 510.619C719.369 511.137 718.395 510.833 717.931 509.921C717.487 509.05 717.742 507.922 718.531 507.4C720.461 506.126 722.396 504.86 724.337 503.608C724.933 503.224 725.55 503.272 726.101 503.731C726.683 504.215 726.872 504.897 726.743 505.696C726.662 505.89 726.613 506.116 726.492 506.268C726.294 506.517 726.07 506.754 725.82 506.928C725.049 507.467 724.259 507.974 723.477 508.493Z" fill="url(#paint21_linear_2_2)"/>
<path d="M722.683 508.992C723.37 509.448 724.056 509.905 724.744 510.36C725.146 510.627 725.553 510.884 725.953 511.154C726.759 511.699 727.014 512.804 726.548 513.716C726.104 514.586 725.114 514.901 724.32 514.388C722.38 513.134 720.444 511.87 718.516 510.592C717.924 510.2 717.652 509.57 717.728 508.801C717.808 507.989 718.234 507.461 718.91 507.19C719.099 507.172 719.296 507.106 719.473 507.149C719.762 507.218 720.055 507.32 720.313 507.477C721.111 507.964 721.895 508.485 722.683 508.992Z" fill="url(#paint22_linear_2_2)"/>
<path fill-rule="evenodd" clip-rule="evenodd" d="M128.561 567.342C124.647 567.342 121.475 571.19 121.475 575.937C121.475 580.684 124.647 584.533 128.561 584.533C132.474 584.533 135.647 580.684 135.647 575.937C135.647 571.19 132.474 567.342 128.561 567.342ZM128.644 580.964C126.359 580.964 124.51 578.715 124.51 575.937C124.51 573.16 126.359 570.91 128.644 570.91C129.759 570.91 130.693 571.409 131.408 572.22L130.242 573.637V573.634C129.809 573.131 129.258 572.874 128.644 572.874C127.279 572.874 126.171 574.275 126.171 575.934C126.171 577.593 127.279 578.998 128.644 578.998C129.881 578.998 130.723 578.137 130.897 576.955H128.644V574.994H132.532C132.584 575.331 132.612 575.682 132.612 576.05C132.612 578.922 131.031 580.964 128.644 580.964Z" fill="url(#paint23_linear_2_2)"/>
<path d="M31.5953 634.839H33.5079V635.759H32.3951V636.681H33.5079V637.602H31.5953V634.839ZM33.89 634.839H35.8032V635.639H34.6904V635.8H35.8032V637.642H33.89V636.801H35.0028V636.641H33.89V634.839ZM36.1861 634.839H38.0979V635.639H36.9851V635.8H38.0979V637.642H36.1861V636.801H37.2989V636.641H36.1861V634.839Z" fill="url(#paint24_linear_2_2)"/>
<path fill-rule="evenodd" clip-rule="evenodd" d="M34.9174 654.82L29.8407 653.225L28.3441 638.869H41.5039L40.008 653.223L34.9174 654.82ZM31.3028 645.368L31.4425 647.128H36.8358L36.6552 649.411L34.9197 649.942H34.9181L33.1855 649.412L33.0743 648.008H31.512L31.7298 650.773L34.9174 651.774L38.1101 650.773L38.4991 645.839L38.5371 645.368L38.8179 641.803H31.0228L31.1647 643.564H37.1129L36.9711 645.368H31.3028Z" fill="url(#paint25_linear_2_2)"/>
<path d="M189.806 476.274H200.941V489.518H189.806V476.274ZM189.298 490.137H201.446V475.655H189.298V490.137ZM197.255 480.817C197.255 480.767 197.27 480.743 197.316 480.743H198.11C198.151 480.743 198.171 480.761 198.171 480.817V485.7C198.171 485.749 198.161 485.774 198.11 485.774H197.327C197.276 485.774 197.261 485.743 197.261 485.693V480.817H197.255ZM197.199 479.412C197.199 479.244 197.254 479.084 197.351 478.966C197.447 478.847 197.579 478.78 197.716 478.78C197.852 478.78 197.984 478.847 198.081 478.966C198.177 479.084 198.232 479.244 198.232 479.412C198.237 479.498 198.227 479.583 198.201 479.664C198.177 479.743 198.139 479.816 198.088 479.876C198.038 479.936 197.978 479.982 197.912 480.012C197.846 480.04 197.775 480.051 197.705 480.043C197.638 480.048 197.569 480.035 197.505 480.006C197.441 479.975 197.382 479.929 197.335 479.869C197.287 479.809 197.25 479.738 197.227 479.659C197.203 479.579 197.194 479.496 197.2 479.412H197.199ZM194.922 482.853C194.78 482.164 194.445 480.669 194.319 479.945H194.309C194.203 480.669 193.936 481.894 193.723 482.853H194.922ZM193.515 483.856L193.115 485.713C193.105 485.762 193.089 485.775 193.039 485.775H192.296C192.245 485.775 192.235 485.756 192.245 485.681L193.683 479.528C193.717 479.36 193.734 479.188 193.733 479.014C193.733 478.971 193.748 478.952 193.774 478.952H194.837C194.872 478.952 194.887 478.965 194.897 479.014L196.507 485.692C196.517 485.741 196.507 485.773 196.466 485.773H195.626C195.586 485.773 195.56 485.761 195.55 485.72L195.135 483.857H193.516L193.515 483.856Z" fill="url(#paint26_linear_2_2)"/>
<path fill-rule="evenodd" clip-rule="evenodd" d="M83.0078 513.557C83.0078 513.232 83.1199 512.919 83.3193 512.689C83.5187 512.46 83.7892 512.33 84.0712 512.33H94.6718C94.8115 512.33 94.95 512.361 95.0792 512.423C95.2083 512.484 95.3258 512.574 95.4247 512.688C95.5236 512.802 95.602 512.938 95.6555 513.087C95.7089 513.236 95.7365 513.396 95.7364 513.557V525.79C95.7366 525.951 95.7091 526.111 95.6557 526.259C95.6023 526.409 95.524 526.544 95.4251 526.658C95.3263 526.772 95.2089 526.863 95.0798 526.925C94.9506 526.987 94.8121 527.018 94.6723 527.018H84.0712C83.9315 527.018 83.7932 526.987 83.6642 526.925C83.5351 526.863 83.4178 526.772 83.3191 526.658C83.2203 526.544 83.142 526.409 83.0886 526.26C83.0351 526.111 83.0077 525.952 83.0078 525.791V513.557ZM88.046 517.931H89.7696V518.929C90.0183 518.355 90.6548 517.838 91.6112 517.838C93.4446 517.838 93.8791 518.982 93.8791 521.08V524.967H92.0237V521.558C92.0237 520.363 91.7749 519.689 91.1431 519.689C90.2665 519.689 89.902 520.416 89.902 521.558V524.967H88.046V517.931ZM84.8639 524.876H86.7199V517.838H84.8639V524.876ZM86.9855 515.542C86.9889 515.726 86.9607 515.908 86.9023 516.079C86.8439 516.25 86.7565 516.405 86.6454 516.536C86.5342 516.668 86.4015 516.772 86.255 516.843C86.1085 516.913 85.9512 516.951 85.7922 516.951C85.6332 516.951 85.4759 516.913 85.3294 516.843C85.1828 516.772 85.0501 516.668 84.939 516.536C84.8278 516.405 84.7404 516.25 84.682 516.079C84.6236 515.908 84.5954 515.726 84.5989 515.542C84.6057 515.183 84.7345 514.841 84.9575 514.588C85.1806 514.337 85.4801 514.196 85.7922 514.196C86.1042 514.196 86.4038 514.337 86.6269 514.588C86.8499 514.841 86.9786 515.183 86.9855 515.542Z" fill="url(#paint27_linear_2_2)"/>
<path d="M142.484 644.13L143.98 646.484L151.554 644.13M134.613 662.467L138.711 657.973L136.245 655.004M141.862 644.13L139.673 646.343L143.357 646.496M133.35 644.131L134.136 645.939L138.471 646.24M135.67 653.506L138.873 646.806L129.573 646.24M136.043 653.93L139.068 657.575L142.405 653.907L143.44 647.073L139.374 646.838L136.043 653.93Z" fill="url(#paint28_linear_2_2)"/>
<defs>
<filter id="filter0_d_2_2" x="393.309" y="472.304" width="105.08" height="116.448" filterUnits="userSpaceOnUse" color-interpolation-filters="sRGB">
<feFlood flood-opacity="0" result="BackgroundImageFix"/>
<feColorMatrix in="SourceAlpha" type="matrix" values="0 0 0 0 0 0 0 0 0 0 0 0 0 0 0 0 0 0 127 0" result="hardAlpha"/>
<feOffset dy="1"/>
<feGaussianBlur stdDeviation="7"/>
<feComposite in2="hardAlpha" operator="out"/>
<feColorMatrix type="matrix" values="0 0 0 0 1 0 0 0 0 1 0 0 0 0 1 0 0 0 0.55 0"/>
<feBlend mode="normal" in2="BackgroundImageFix" result="effect1_dropShadow_2_2"/>
<feBlend mode="normal" in="SourceGraphic" in2="effect1_dropShadow_2_2" result="shape"/>
</filter>
<linearGradient id="paint0_linear_2_2" x1="529.211" y1="179.354" x2="529.211" y2="452.069" gradientUnits="userSpaceOnUse">
<stop stop-color="#3D1768"/>
<stop offset="1" stop-color="#3D1768" stop-opacity="0"/>
</linearGradient>
<linearGradient id="paint1_linear_2_2" x1="493.245" y1="196.06" x2="493.245" y2="461.405" gradientUnits="userSpaceOnUse">
<stop stop-color="#3D1768"/>
<stop offset="1" stop-color="#3D1768" stop-opacity="0"/>
</linearGradient>
<linearGradient id="paint2_linear_2_2" x1="451.228" y1="211.293" x2="451.228" y2="477.621" gradientUnits="userSpaceOnUse">
<stop stop-color="#3D1768"/>
<stop offset="1" stop-color="#3D1768" stop-opacity="0"/>
</linearGradient>
<linearGradient id="paint3_linear_2_2" x1="371.766" y1="213.259" x2="371.766" y2="484.009" gradientUnits="userSpaceOnUse">
<stop stop-color="#3D1768"/>
<stop offset="1" stop-color="#3D1768" stop-opacity="0"/>
</linearGradient>
<linearGradient id="paint4_linear_2_2" x1="406.357" y1="211.293" x2="406.357" y2="493.345" gradientUnits="userSpaceOnUse">
<stop stop-color="#3D1768"/>
<stop offset="1" stop-color="#3D1768" stop-opacity="0"/>
</linearGradient>
<linearGradient id="paint5_linear_2_2" x1="442.371" y1="217.19" x2="442.371" y2="509.069" gradientUnits="userSpaceOnUse">
<stop stop-color="#3D1768"/>
<stop offset="1" stop-color="#3D1768" stop-opacity="0"/>
</linearGradient>
<radialGradient id="paint6_radial_2_2" cx="0" cy="0" r="1" gradientUnits="userSpaceOnUse" gradientTransform="translate(457.555 578.845) rotate(90) scale(162.155 274.331)">
<stop stop-color="#763CAC"/>
<stop offset="1" stop-color="#320F85" stop-opacity="0"/>
</radialGradient>
<linearGradient id="paint7_linear_2_2" x1="445.408" y1="440.276" x2="445.408" y2="617.172" gradientUnits="userSpaceOnUse">
<stop stop-color="#301080" stop-opacity="0.6"/>
<stop offset="1" stop-color="#7840AD" stop-opacity="0.36"/>
</linearGradient>
<linearGradient id="paint8_linear_2_2" x1="445.914" y1="449.121" x2="445.914" y2="713.483" gradientUnits="userSpaceOnUse">
<stop stop-opacity="0"/>
<stop offset="0.479167" stop-color="#763CAC"/>
</linearGradient>
<linearGradient id="paint9_linear_2_2" x1="450.469" y1="449.121" x2="450.469" y2="713.483" gradientUnits="userSpaceOnUse">
<stop stop-opacity="0"/>
<stop offset="0.479167" stop-color="#763CAC"/>
</linearGradient>
<linearGradient id="paint10_linear_2_2" x1="461.098" y1="449.121" x2="461.098" y2="713.483" gradientUnits="userSpaceOnUse">
<stop stop-opacity="0"/>
<stop offset="0.479167" stop-color="#763CAC"/>
</linearGradient>
<linearGradient id="paint11_linear_2_2" x1="450.469" y1="378.362" x2="450.469" y2="648.621" gradientUnits="userSpaceOnUse">
<stop offset="0.197917" stop-opacity="0"/>
<stop offset="1" stop-color="#763CAC"/>
</linearGradient>
<linearGradient id="paint12_linear_2_2" x1="449.963" y1="467.793" x2="449.963" y2="628.966" gradientUnits="userSpaceOnUse">
<stop offset="0.197917" stop-opacity="0"/>
<stop offset="1" stop-color="#763CAC"/>
</linearGradient>
<linearGradient id="paint13_linear_2_2" x1="853.408" y1="526.083" x2="853.408" y2="546.591" gradientUnits="userSpaceOnUse">
<stop stop-color="#693B93" stop-opacity="0.53"/>
<stop offset="1" stop-color="#693B93"/>
</linearGradient>
<linearGradient id="paint14_linear_2_2" x1="853.403" y1="534.193" x2="853.403" y2="538.484" gradientUnits="userSpaceOnUse">
<stop stop-color="#693B93" stop-opacity="0.53"/>
<stop offset="1" stop-color="#693B93"/>
</linearGradient>
<linearGradient id="paint15_linear_2_2" x1="787.056" y1="496.284" x2="787.056" y2="511.184" gradientUnits="userSpaceOnUse">
<stop stop-color="#693B93" stop-opacity="0.53"/>
<stop offset="1" stop-color="#693B93"/>
</linearGradient>
<linearGradient id="paint16_linear_2_2" x1="897.902" y1="577.657" x2="897.902" y2="599.432" gradientUnits="userSpaceOnUse">
<stop stop-color="#693B93" stop-opacity="0.53"/>
<stop offset="1" stop-color="#693B93"/>
</linearGradient>
<linearGradient id="paint17_linear_2_2" x1="780.982" y1="663.612" x2="780.982" y2="682.522" gradientUnits="userSpaceOnUse">
<stop stop-color="#693B93" stop-opacity="0.53"/>
<stop offset="1" stop-color="#693B93"/>
</linearGradient>
<linearGradient id="paint18_linear_2_2" x1="843.03" y1="597.139" x2="843.03" y2="612.325" gradientUnits="userSpaceOnUse">
<stop stop-color="#693B93" stop-opacity="0.53"/>
<stop offset="1" stop-color="#693B93"/>
</linearGradient>
<linearGradient id="paint19_linear_2_2" x1="733.741" y1="507.128" x2="733.741" y2="514.642" gradientUnits="userSpaceOnUse">
<stop stop-color="#693B93" stop-opacity="0.53"/>
<stop offset="1" stop-color="#693B93"/>
</linearGradient>
<linearGradient id="paint20_linear_2_2" x1="733.744" y1="503.358" x2="733.744" y2="510.862" gradientUnits="userSpaceOnUse">
<stop stop-color="#693B93" stop-opacity="0.53"/>
<stop offset="1" stop-color="#693B93"/>
</linearGradient>
<linearGradient id="paint21_linear_2_2" x1="722.248" y1="503.35" x2="722.248" y2="510.87" gradientUnits="userSpaceOnUse">
<stop stop-color="#693B93" stop-opacity="0.53"/>
<stop offset="1" stop-color="#693B93"/>
</linearGradient>
<linearGradient id="paint22_linear_2_2" x1="722.248" y1="507.135" x2="722.248" y2="514.635" gradientUnits="userSpaceOnUse">
<stop stop-color="#693B93" stop-opacity="0.53"/>
<stop offset="1" stop-color="#693B93"/>
</linearGradient>
<linearGradient id="paint23_linear_2_2" x1="128.561" y1="567.342" x2="128.561" y2="584.533" gradientUnits="userSpaceOnUse">
<stop stop-color="#693B93" stop-opacity="0.53"/>
<stop offset="1" stop-color="#693B93"/>
</linearGradient>
<linearGradient id="paint24_linear_2_2" x1="34.8466" y1="634.839" x2="34.8466" y2="637.642" gradientUnits="userSpaceOnUse">
<stop stop-color="#693B93" stop-opacity="0.53"/>
<stop offset="1" stop-color="#693B93"/>
</linearGradient>
<linearGradient id="paint25_linear_2_2" x1="34.924" y1="638.869" x2="34.924" y2="654.82" gradientUnits="userSpaceOnUse">
<stop stop-color="#693B93" stop-opacity="0.53"/>
<stop offset="1" stop-color="#693B93"/>
</linearGradient>
<linearGradient id="paint26_linear_2_2" x1="195.372" y1="475.655" x2="195.372" y2="490.137" gradientUnits="userSpaceOnUse">
<stop stop-color="#693B93" stop-opacity="0.53"/>
<stop offset="1" stop-color="#693B93"/>
</linearGradient>
<linearGradient id="paint27_linear_2_2" x1="89.3721" y1="512.33" x2="89.3721" y2="527.018" gradientUnits="userSpaceOnUse">
<stop stop-color="#693B93" stop-opacity="0.53"/>
<stop offset="1" stop-color="#693B93"/>
</linearGradient>
<linearGradient id="paint28_linear_2_2" x1="140.564" y1="644.13" x2="140.564" y2="662.467" gradientUnits="userSpaceOnUse">
<stop stop-color="#693B93" stop-opacity="0.53"/>
<stop offset="1" stop-color="#693B93"/>
</linearGradient>
</defs>
</svg>
